<svg width="220" height="3" viewBox="0 0 220 3" fill="none" xmlns="http://www.w3.org/2000/svg">
<path d="M1 1H219V2H1V1Z" fill="black"/>
<path d="M34.7578 0.21875L35.1328 0.222656C35.4208 0.226429 35.7074 0.263178 35.9922 0.332031L36.7422 0.511719C36.9505 0.562081 37.1587 0.583713 37.3633 0.578125L37.7383 0.570312L38.1133 0.558594C38.3816 0.551342 38.6499 0.558217 38.918 0.582031L39.668 0.652344C39.9058 0.673528 40.1451 0.682874 40.3828 0.6875L41.1328 0.703125C41.3718 0.707731 41.6126 0.706163 41.8516 0.695312L42.2266 0.675781L42.6016 0.660156C42.8375 0.649427 43.0762 0.62836 43.3125 0.597656L43.6875 0.550781L44.0625 0.5C44.3526 0.462463 44.6434 0.460997 44.9336 0.496094L45.6836 0.589844C45.874 0.612968 46.0678 0.600331 46.2617 0.554688L46.6367 0.464844L47.0117 0.378906C47.2966 0.311935 47.5833 0.275834 47.8711 0.273438L48.6211 0.265625C48.9229 0.263139 49.224 0.310307 49.5195 0.398438L49.8945 0.507812L50.2695 0.621094C50.4283 0.668132 50.5808 0.668851 50.7383 0.625L51.4883 0.414062C51.814 0.322739 52.147 0.30987 52.4766 0.378906L52.8516 0.460938L53.2266 0.539062C53.4282 0.581457 53.6291 0.592552 53.8281 0.574219L54.5781 0.503906C54.8768 0.476269 55.1762 0.491434 55.4727 0.550781L55.8477 0.628906L56.2227 0.703125C56.3814 0.734947 56.5421 0.723088 56.7109 0.664062L57.0859 0.535156L57.4609 0.402344C57.7888 0.287933 58.1263 0.258412 58.4648 0.320312L58.8398 0.390625L59.2148 0.457031C59.4036 0.491576 59.5921 0.493531 59.7812 0.457031L60.5312 0.308594C60.8755 0.242401 61.2194 0.278609 61.5508 0.402344L61.9258 0.539062L62.3008 0.679688C62.4535 0.736633 62.5941 0.743585 62.7383 0.703125L63.4883 0.492188C63.8127 0.400624 64.1437 0.383759 64.4727 0.449219L65.2227 0.597656C65.4361 0.640146 65.6481 0.657987 65.8594 0.652344L66.2344 0.644531L66.6094 0.632812C66.832 0.626719 67.0573 0.604751 67.2812 0.5625L67.6562 0.492188L68.0312 0.417969C68.3227 0.362897 68.6167 0.345913 68.9102 0.367188L69.6602 0.421875C69.9124 0.440259 70.1658 0.462268 70.418 0.484375L70.793 0.515625L71.168 0.550781C71.3781 0.569203 71.5897 0.56327 71.8008 0.53125L72.5508 0.414062C72.8232 0.372767 73.0978 0.350572 73.3711 0.347656L74.1211 0.339844C74.4045 0.336917 74.6872 0.363936 74.9688 0.417969L75.3438 0.488281L75.7188 0.5625C75.9504 0.606975 76.1833 0.638766 76.4141 0.65625L77.1641 0.710938C77.3827 0.727434 77.6014 0.726277 77.8203 0.703125L78.1953 0.660156L78.5703 0.621094C78.8065 0.595985 79.0446 0.560606 79.2812 0.515625L80.0312 0.375C80.3595 0.312611 80.6886 0.329162 81.0117 0.421875L81.3867 0.53125L81.7617 0.636719C81.965 0.695161 82.166 0.723415 82.3633 0.71875L82.7383 0.707031L83.1133 0.699219C83.3253 0.694199 83.5388 0.666381 83.7539 0.613281L84.5039 0.425781C84.8055 0.351213 85.1121 0.325663 85.418 0.351562L85.793 0.382812L86.168 0.417969C86.4361 0.440704 86.7054 0.474964 86.9727 0.527344L87.7227 0.675781C87.9411 0.718504 88.1583 0.741349 88.375 0.742188H89.125C89.3744 0.743029 89.6256 0.745859 89.875 0.746094H90.625C90.8665 0.74632 91.11 0.742519 91.3516 0.730469L92.1016 0.691406C92.3594 0.678572 92.6172 0.671033 92.875 0.671875L93.25 0.675781H93.625C93.856 0.676563 94.089 0.665362 94.3203 0.640625L94.6953 0.597656L95.0703 0.558594C95.3224 0.531576 95.576 0.507545 95.8281 0.484375L96.5781 0.414062C96.8524 0.388865 97.1279 0.386436 97.4023 0.402344L97.7773 0.421875L98.1523 0.445312C98.4176 0.460765 98.6845 0.487128 98.9492 0.527344L99.3242 0.585938L99.6992 0.640625C99.8685 0.66636 100.04 0.655439 100.219 0.597656L100.594 0.472656L100.969 0.351562C101.325 0.235482 101.69 0.244346 102.043 0.371094L102.418 0.503906L102.793 0.640625C102.997 0.714105 103.199 0.750713 103.395 0.757812L103.77 0.773438L104.145 0.785156C104.342 0.79221 104.543 0.769439 104.746 0.714844L105.496 0.511719C105.812 0.427024 106.133 0.410488 106.453 0.460938L107.203 0.578125C107.396 0.608444 107.588 0.606427 107.781 0.570312L108.531 0.429688C108.811 0.377278 109.094 0.34828 109.375 0.347656H110.125C110.378 0.347103 110.63 0.351089 110.883 0.355469L111.258 0.359375L111.633 0.367188C111.881 0.3715 112.13 0.376103 112.379 0.378906L113.129 0.386719C113.387 0.389632 113.648 0.397826 113.906 0.414062L114.656 0.460938C114.892 0.475743 115.128 0.481581 115.363 0.476562L116.113 0.460938C116.348 0.455911 116.585 0.440718 116.82 0.414062L117.57 0.328125C117.845 0.297063 118.12 0.285275 118.395 0.296875L118.77 0.3125L119.145 0.332031C119.386 0.342308 119.629 0.344796 119.871 0.34375H120.246L120.621 0.339844C120.864 0.338765 121.109 0.334789 121.352 0.324219L121.727 0.308594L122.102 0.289062C122.387 0.276625 122.673 0.296397 122.957 0.34375L123.707 0.46875C123.929 0.50577 124.15 0.524284 124.371 0.523438L124.746 0.519531H125.121C125.36 0.518508 125.601 0.509591 125.84 0.492188L126.59 0.4375C126.857 0.418076 127.124 0.413456 127.391 0.421875L128.141 0.445312C128.379 0.45282 128.617 0.45104 128.855 0.441406L129.605 0.410156C129.862 0.399787 130.119 0.394686 130.375 0.394531H131.125C131.404 0.39438 131.683 0.419423 131.961 0.46875L132.711 0.601562C132.931 0.640696 133.152 0.65817 133.371 0.65625L133.746 0.652344H134.121C134.363 0.650213 134.606 0.638711 134.848 0.625L135.598 0.585938C135.838 0.57227 136.079 0.549977 136.32 0.523438L136.695 0.484375L137.07 0.441406C137.326 0.413216 137.584 0.389961 137.84 0.371094L138.59 0.316406C138.878 0.295303 139.166 0.306673 139.453 0.351562L140.203 0.46875C140.436 0.505141 140.67 0.527224 140.902 0.539062L141.652 0.578125C141.897 0.590592 142.142 0.59952 142.387 0.605469L142.762 0.617188L143.137 0.625C143.342 0.629986 143.549 0.608214 143.758 0.558594L144.508 0.378906C144.845 0.298494 145.186 0.31253 145.52 0.414062L146.27 0.640625C146.434 0.690906 146.593 0.696046 146.754 0.65625L147.504 0.46875C147.815 0.391597 148.131 0.377843 148.445 0.421875L149.195 0.523438C149.444 0.558258 149.693 0.594952 149.941 0.628906L150.691 0.730469C150.879 0.756007 151.067 0.748285 151.258 0.703125L152.008 0.523438C152.292 0.455715 152.58 0.418023 152.867 0.414062L153.617 0.40625C153.867 0.402869 154.121 0.397455 154.371 0.394531L155.121 0.386719C155.41 0.383496 155.698 0.412475 155.984 0.476562L156.734 0.648438C156.95 0.696832 157.165 0.720844 157.379 0.722656L157.754 0.726562H158.129C158.352 0.728438 158.576 0.713228 158.801 0.679688L159.176 0.625L159.551 0.566406C159.815 0.526928 160.079 0.50075 160.344 0.484375L161.094 0.4375C161.386 0.419413 161.678 0.436939 161.969 0.492188L162.344 0.566406L162.719 0.636719C162.901 0.67138 163.082 0.670042 163.266 0.628906L163.641 0.542969L164.016 0.460938C164.345 0.38711 164.677 0.393689 165.004 0.480469L165.379 0.578125L165.754 0.679688C165.938 0.728356 166.118 0.738421 166.297 0.710938L167.047 0.59375C167.326 0.550596 167.607 0.531904 167.887 0.539062L168.262 0.546875L168.637 0.558594C168.88 0.564874 169.124 0.565357 169.367 0.5625L170.117 0.554688C170.348 0.55195 170.581 0.536092 170.812 0.507812L171.562 0.414062C171.831 0.381207 172.102 0.36622 172.371 0.363281L173.121 0.355469C173.417 0.352374 173.712 0.387816 174.004 0.464844L174.379 0.566406L174.754 0.664062C174.95 0.715633 175.142 0.734411 175.332 0.71875L176.082 0.65625C176.35 0.633981 176.619 0.626249 176.887 0.632812L177.637 0.648438C177.86 0.65393 178.084 0.642941 178.309 0.613281L178.684 0.5625L179.059 0.515625C179.355 0.476315 179.653 0.478797 179.949 0.523438L180.699 0.632812C180.887 0.661152 181.075 0.655663 181.266 0.613281L181.641 0.53125L182.016 0.445312C182.322 0.377021 182.632 0.364206 182.941 0.40625L183.691 0.507812C183.888 0.534698 184.087 0.532626 184.285 0.496094L185.035 0.355469C185.309 0.305058 185.584 0.278565 185.859 0.269531L186.234 0.253906L186.609 0.242188C186.88 0.233322 187.151 0.244105 187.422 0.269531L188.172 0.339844C188.401 0.361373 188.63 0.365621 188.859 0.359375L189.234 0.351562L189.609 0.339844C189.895 0.331975 190.181 0.35423 190.465 0.40625L190.84 0.476562L191.215 0.542969C191.455 0.587123 191.697 0.626525 191.938 0.65625L192.688 0.75C192.9 0.776186 193.112 0.778569 193.324 0.757812L193.699 0.71875L194.074 0.683594C194.356 0.655881 194.641 0.654161 194.922 0.679688L195.297 0.714844L195.672 0.746094C195.879 0.764713 196.085 0.757134 196.293 0.722656L197.043 0.597656C197.295 0.555777 197.548 0.517531 197.801 0.480469L198.551 0.371094C198.823 0.331114 199.098 0.310666 199.371 0.308594L200.121 0.300781C200.407 0.298618 200.693 0.327313 200.977 0.386719L201.352 0.46875L201.727 0.546875C201.909 0.585197 202.091 0.5841 202.273 0.546875L202.648 0.46875L203.023 0.394531C203.335 0.330645 203.652 0.326483 203.965 0.382812L204.715 0.515625C204.915 0.551568 205.114 0.559562 205.312 0.535156L206.062 0.441406C206.343 0.406812 206.625 0.396736 206.906 0.414062L207.656 0.460938C207.91 0.476582 208.164 0.494341 208.418 0.515625L208.793 0.546875L209.168 0.582031C209.374 0.59922 209.581 0.587408 209.789 0.550781L210.539 0.417969C210.838 0.365388 211.138 0.360094 211.438 0.398438L212.188 0.492188C212.4 0.519494 212.616 0.52464 212.828 0.503906L213.203 0.464844L213.578 0.429688C213.857 0.402622 214.135 0.399456 214.414 0.421875L215.164 0.484375C215.372 0.501127 215.58 0.489156 215.789 0.453125L216.164 0.390625L216.539 0.324219C216.824 0.275007 217.112 0.256664 217.398 0.269531L217.773 0.289062L218.148 0.304688C218.334 0.313131 218.535 0.359091 218.711 0.480469C218.895 0.608394 219.007 0.791957 219.059 0.992188L219.137 1.28516L219.211 1.58203C219.244 1.71132 219.304 2.04276 219.035 2.28125C218.91 2.39226 218.767 2.42811 218.66 2.4375C218.555 2.44648 218.454 2.43235 218.371 2.41406L218.043 2.34375L217.719 2.26953C217.582 2.23894 217.42 2.23687 217.23 2.27734L216.855 2.35938L216.48 2.4375C216.204 2.49664 215.926 2.53401 215.648 2.54688L215.273 2.56641L214.898 2.58203C214.646 2.5937 214.393 2.6019 214.141 2.60938L213.391 2.63281C213.137 2.64031 212.882 2.64611 212.629 2.64844L211.879 2.65625C211.618 2.65863 211.358 2.65183 211.098 2.63672L210.348 2.58984C210.084 2.57451 209.818 2.54838 209.555 2.51172L208.805 2.41016C208.583 2.37938 208.361 2.3675 208.141 2.375L207.391 2.39844C207.122 2.40751 206.854 2.40421 206.586 2.38281L205.836 2.32031C205.603 2.30172 205.369 2.29482 205.137 2.30078L204.762 2.3125L204.387 2.32031C204.154 2.32632 203.921 2.34556 203.688 2.375L202.938 2.46875C202.672 2.50223 202.406 2.5226 202.141 2.53125L201.766 2.54297L201.391 2.55859C201.159 2.56616 200.927 2.58468 200.695 2.61719L200.32 2.66797L199.945 2.72266C199.67 2.76122 199.393 2.77704 199.117 2.77344L198.367 2.76562C198.088 2.7619 197.809 2.7323 197.531 2.67969L196.781 2.53906C196.57 2.49915 196.361 2.48509 196.152 2.49609L195.402 2.53516C195.117 2.55028 194.831 2.53327 194.547 2.48828L193.797 2.37109C193.6 2.33999 193.404 2.34187 193.207 2.375L192.457 2.5C192.167 2.54868 191.877 2.56277 191.586 2.53906L190.836 2.47656C190.624 2.45914 190.408 2.46546 190.195 2.49609L189.445 2.60547C189.149 2.64799 188.851 2.64821 188.555 2.60547L187.805 2.49609C187.598 2.46615 187.39 2.46091 187.184 2.48438L186.434 2.57031C186.18 2.59929 185.925 2.62555 185.672 2.64844L184.922 2.71875C184.614 2.74658 184.304 2.71841 184 2.64062L183.625 2.54688L183.25 2.44922C183.067 2.40234 182.887 2.3957 182.707 2.42578L181.957 2.55078C181.654 2.60141 181.35 2.60273 181.047 2.55469L180.672 2.49609L180.297 2.43359C180.116 2.40492 179.935 2.41417 179.75 2.46094L179.375 2.55859L179 2.65234C178.657 2.7396 178.31 2.72587 177.973 2.61719L177.598 2.5L177.223 2.37891C177.034 2.31825 176.851 2.29554 176.672 2.3125L176.297 2.35156L175.922 2.38672C175.681 2.4095 175.44 2.43709 175.199 2.47266L174.449 2.58203C174.187 2.62075 173.923 2.65278 173.66 2.67188L172.91 2.72656C172.593 2.74949 172.277 2.70569 171.969 2.60547L171.219 2.36328C171.018 2.29806 170.822 2.26812 170.629 2.26953H170.254L169.879 2.27344C169.685 2.27487 169.488 2.31045 169.285 2.37891L168.91 2.50391L168.535 2.63281C168.225 2.73772 167.907 2.77954 167.586 2.75391L166.836 2.69141C166.603 2.67268 166.369 2.66679 166.137 2.67188L165.387 2.6875C165.139 2.69295 164.889 2.6987 164.641 2.70703L164.266 2.72266L163.891 2.73438C163.607 2.74381 163.325 2.72309 163.043 2.67578L162.293 2.55078C162.052 2.51034 161.811 2.4757 161.57 2.44922L161.195 2.41016L160.82 2.36719C160.622 2.34533 160.423 2.35543 160.223 2.39453L159.848 2.46875L159.473 2.53906C159.202 2.59204 158.928 2.62693 158.656 2.64453L158.281 2.67188L157.906 2.69531C157.651 2.71183 157.396 2.72262 157.141 2.73047L156.391 2.75391C156.109 2.76256 155.827 2.74736 155.547 2.70312L155.172 2.64062L154.797 2.58203C154.57 2.54625 154.343 2.52794 154.117 2.52344L153.367 2.50781C153.124 2.50306 152.876 2.50314 152.633 2.50781L151.883 2.52344C151.653 2.52792 151.422 2.54292 151.191 2.57422L150.441 2.67578C150.162 2.71372 149.882 2.72821 149.602 2.71484L149.227 2.69531L148.852 2.67969C148.621 2.66869 148.391 2.67156 148.16 2.6875L147.785 2.71094L147.41 2.73828C147.087 2.76064 146.768 2.71343 146.457 2.60156L145.707 2.32812C145.55 2.27149 145.403 2.26897 145.254 2.30859L144.879 2.40625L144.504 2.50781C144.227 2.58154 143.947 2.63123 143.668 2.65625L143.293 2.6875L142.918 2.72266C142.636 2.74783 142.352 2.74535 142.07 2.71484L141.695 2.67578L141.32 2.63281C141.094 2.60834 140.867 2.5987 140.641 2.60547L139.891 2.62891C139.616 2.63715 139.341 2.62635 139.066 2.59375L138.691 2.54688L138.316 2.50391C138.093 2.47731 137.868 2.46709 137.645 2.47656L136.895 2.50781C136.603 2.52006 136.312 2.4978 136.023 2.4375L135.273 2.28125C135.084 2.24161 134.895 2.23515 134.707 2.26562L133.957 2.39062C133.715 2.43003 133.472 2.47616 133.23 2.52734L132.48 2.68359C132.183 2.74653 131.882 2.76506 131.582 2.73828L131.207 2.70703L130.832 2.67188C130.583 2.64949 130.331 2.62651 130.082 2.60547L129.332 2.54297C129.077 2.5214 128.822 2.49551 128.566 2.46484L128.191 2.41797L127.816 2.375C127.575 2.34592 127.332 2.32192 127.09 2.30469L126.34 2.25C126.122 2.23446 125.902 2.24315 125.684 2.26953L125.309 2.3125L124.934 2.35938C124.666 2.39162 124.397 2.40723 124.129 2.41016L123.379 2.41797C123.13 2.42069 122.882 2.42637 122.633 2.42969L121.883 2.4375C121.642 2.4407 121.401 2.45218 121.16 2.46875L120.785 2.49609L120.41 2.51953C120.111 2.54017 119.812 2.51573 119.516 2.44922L119.141 2.36719L118.766 2.28125C118.592 2.24224 118.421 2.24635 118.246 2.28906L117.871 2.37891L117.496 2.47266C117.228 2.53856 116.957 2.5881 116.688 2.62109L116.312 2.66797L115.938 2.71094C115.613 2.75059 115.288 2.71829 114.973 2.61719L114.598 2.49609L114.223 2.37891C114.05 2.32365 113.884 2.31178 113.719 2.34375L112.969 2.49219C112.69 2.54615 112.41 2.5728 112.129 2.57422H111.754L111.379 2.57812C111.123 2.57933 110.865 2.57451 110.609 2.56641L109.859 2.54297C109.582 2.53418 109.303 2.50303 109.027 2.44922L108.652 2.375L108.277 2.30469C108.106 2.27145 107.934 2.27511 107.758 2.32422L107.008 2.53516C106.724 2.61429 106.436 2.66167 106.148 2.67578L105.773 2.69531L105.398 2.71094C105.11 2.72501 104.822 2.70509 104.535 2.65234L104.16 2.58594L103.785 2.51562C103.543 2.47111 103.3 2.43483 103.059 2.40234L102.309 2.30078C102.095 2.27205 101.881 2.26709 101.668 2.28516L100.918 2.34766C100.7 2.3662 100.479 2.40486 100.258 2.46484L99.5078 2.66797C99.178 2.75756 98.8397 2.76627 98.5078 2.6875L97.7578 2.50781C97.5833 2.46666 97.4124 2.46811 97.2383 2.50781L96.4883 2.67969C96.1699 2.7526 95.8469 2.75572 95.5273 2.69141L95.1523 2.61328L94.7773 2.53906C94.5471 2.49256 94.3152 2.45897 94.0859 2.44141L93.3359 2.38672C93.1028 2.36888 92.8697 2.3617 92.6367 2.36719L91.8867 2.38281C91.6674 2.38797 91.4476 2.41594 91.2266 2.46094L90.8516 2.53516L90.4766 2.61328C90.1956 2.67057 89.9118 2.70173 89.6289 2.70312H88.8789C88.6365 2.70423 88.3909 2.71054 88.1484 2.72266L87.3984 2.76172C87.0863 2.77714 86.7764 2.7335 86.4727 2.63672L86.0977 2.51953L85.7227 2.39844C85.5463 2.34238 85.3753 2.33077 85.207 2.35938L84.832 2.42578L84.457 2.48828C84.1995 2.53204 83.9413 2.57083 83.6836 2.60156L82.9336 2.6875C82.6557 2.72062 82.3761 2.73318 82.0977 2.71875L81.3477 2.67969C81.0611 2.66473 80.7751 2.6164 80.4922 2.53906L79.7422 2.33594C79.5567 2.28532 79.3755 2.27094 79.1953 2.29688L78.4453 2.40625C78.1673 2.44622 77.8883 2.4616 77.6094 2.45312L76.8594 2.42969C76.6411 2.42309 76.4225 2.43834 76.2031 2.47266L75.4531 2.58984C75.1845 2.63193 74.9138 2.66089 74.6445 2.67188L74.2695 2.68359L73.8945 2.69922C73.5867 2.71169 73.2812 2.67299 72.9805 2.58203L72.2305 2.35547C72.0206 2.29197 71.8137 2.25724 71.6094 2.25L71.2344 2.23438L70.8594 2.22266C70.6602 2.21575 70.4579 2.23932 70.2539 2.29297L69.8789 2.39062L69.5039 2.49219C69.1831 2.57676 68.8556 2.58873 68.5312 2.52734L68.1562 2.45312L67.7812 2.38281C67.5836 2.34552 67.3876 2.34161 67.1914 2.36719L66.8164 2.41406L66.4414 2.46484C66.174 2.49991 65.9046 2.52091 65.6367 2.52734L65.2617 2.53516L64.8867 2.54688C64.6039 2.55364 64.3205 2.53282 64.0391 2.48438L63.6641 2.41797L63.2891 2.35547C63.0599 2.31604 62.8299 2.29124 62.6016 2.28125L62.2266 2.26172L61.8516 2.24609C61.6186 2.23595 61.3853 2.23711 61.1523 2.25L60.7773 2.26953L60.4023 2.29297C60.1723 2.30571 59.9418 2.33107 59.7109 2.37109L59.3359 2.4375L58.9609 2.5C58.6945 2.54621 58.4272 2.5792 58.1602 2.59766L57.7852 2.625L57.4102 2.64844C57.1396 2.66711 56.8682 2.67191 56.5977 2.65625L55.8477 2.60938C55.6125 2.59569 55.3757 2.59492 55.1406 2.60156L54.7656 2.60938L54.3906 2.62109C54.1093 2.62909 53.827 2.61103 53.5469 2.56641L53.1719 2.50781L52.7969 2.44531C52.5817 2.41103 52.3663 2.40207 52.1523 2.41406L51.7773 2.43359L51.4023 2.45703C51.1249 2.47254 50.8473 2.46495 50.5703 2.43359L49.8203 2.34766C49.6341 2.32651 49.4453 2.33995 49.2539 2.39062L48.8789 2.48828L48.5039 2.58984C48.1921 2.67253 47.8753 2.6916 47.5586 2.64844L46.8086 2.54688C46.5655 2.51362 46.3211 2.48476 46.0781 2.46094L45.7031 2.42578L45.3281 2.38672C45.1086 2.36521 44.8874 2.36394 44.668 2.38281L44.293 2.41406L43.918 2.44922C43.6589 2.47151 43.3997 2.48458 43.1406 2.49219L42.3906 2.51562C42.1358 2.52308 41.8799 2.524 41.625 2.52344H40.875C40.6411 2.52291 40.406 2.53361 40.1719 2.55469L39.7969 2.58984L39.4219 2.62109C39.1292 2.64751 38.8344 2.63808 38.543 2.58984L37.793 2.46484C37.5908 2.43142 37.3889 2.42735 37.1875 2.45312L36.8125 2.5L36.4375 2.55078C36.1812 2.58357 35.9244 2.61055 35.668 2.63281L35.293 2.66406L34.918 2.69922C34.646 2.72281 34.3737 2.72795 34.1016 2.71484L33.3516 2.67578C33.1122 2.66422 32.8722 2.66124 32.6328 2.66406L31.8828 2.67188C31.5894 2.67538 31.2936 2.64145 31.0039 2.57031L30.6289 2.48047L30.2539 2.38672C30.0563 2.3384 29.8614 2.32295 29.668 2.33984L29.293 2.37109L28.918 2.40625C28.688 2.42636 28.4576 2.4601 28.2266 2.50781L27.4766 2.66406C27.1626 2.72892 26.8458 2.72777 26.5312 2.66797L25.7812 2.52734C25.5717 2.48754 25.3638 2.47589 25.1562 2.48828L24.7812 2.50781L24.4062 2.53125C24.1619 2.54595 23.9162 2.56359 23.6719 2.58594L22.9219 2.65625C22.6375 2.68227 22.3505 2.67732 22.0664 2.64453L21.3164 2.55859C21.0819 2.53156 20.8475 2.51393 20.6133 2.50781L20.2383 2.5L19.8633 2.48828C19.6497 2.48274 19.4342 2.5018 19.2188 2.54297L18.8438 2.61328L18.4688 2.6875C18.1553 2.74735 17.8404 2.74294 17.5273 2.67969L17.1523 2.60547L16.7773 2.52734C16.5519 2.48166 16.3256 2.45651 16.1016 2.44531L15.3516 2.40625C15.1298 2.39524 14.9059 2.40314 14.6836 2.42969L14.3086 2.47266L13.9336 2.51953C13.642 2.55431 13.35 2.55081 13.0586 2.51172L12.6836 2.46094L12.3086 2.41406C12.1096 2.38737 11.9108 2.38752 11.7109 2.42188L10.9609 2.55469C10.6562 2.60727 10.348 2.60857 10.043 2.55859L9.29297 2.43359C9.07496 2.39796 8.85741 2.38371 8.64062 2.39062L7.89062 2.41406C7.61877 2.42272 7.34578 2.41375 7.07422 2.38672L6.69922 2.35156L6.32422 2.3125C6.12304 2.29259 5.92171 2.30171 5.71875 2.33984L4.96875 2.48047C4.65291 2.53998 4.33422 2.53714 4.01953 2.46875L3.26953 2.30469C3.09503 2.26667 2.92205 2.26918 2.74609 2.3125L2.37109 2.40625L1.99609 2.49609C1.82259 2.53895 1.60103 2.56206 1.38672 2.47656C1.14601 2.38036 1.0021 2.18557 0.9375 1.97656L0.851562 1.69922L0.769531 1.42188V1.41797C0.720818 1.38677 0.649034 1.33278 0.597656 1.23828C0.5514 1.15244 0.526957 1.04376 0.542969 0.929688C0.558147 0.822806 0.603427 0.743788 0.640625 0.695312C0.705246 0.611323 0.779155 0.570084 0.800781 0.558594C0.852837 0.531007 0.899516 0.517442 0.90625 0.515625C0.930544 0.509081 0.95075 0.504915 0.957031 0.503906C0.964505 0.502711 0.972659 0.504403 0.976562 0.503906C0.984112 0.502957 0.991588 0.500449 0.996094 0.5C1.01335 0.498287 1.03889 0.498169 1.06641 0.496094C1.12413 0.491741 1.21564 0.484928 1.33984 0.476562L1.71484 0.449219L2.08984 0.425781C2.34453 0.408631 2.60076 0.392754 2.85547 0.382812L3.23047 0.371094L3.60547 0.355469C3.89131 0.344312 4.17661 0.364353 4.46094 0.414062L4.83594 0.480469L5.21094 0.542969C5.43744 0.582573 5.66518 0.606992 5.89062 0.613281L6.26562 0.625L6.64062 0.632812C6.89583 0.639952 7.15107 0.651687 7.40625 0.667969L7.78125 0.695312L8.15625 0.71875C8.36916 0.732342 8.58286 0.72097 8.79688 0.6875L9.54688 0.570312C9.80949 0.529176 10.073 0.497082 10.3359 0.476562L10.7109 0.449219L11.0859 0.417969C11.3306 0.398878 11.5756 0.37788 11.8203 0.351562L12.1953 0.308594L12.5703 0.269531C12.8788 0.236347 13.1877 0.258305 13.4922 0.332031L14.2422 0.511719C14.4306 0.557366 14.6158 0.565883 14.8008 0.539062L15.5508 0.429688C15.8546 0.385293 16.1619 0.390602 16.4648 0.445312L16.8398 0.515625L17.2148 0.582031C17.4034 0.615983 17.5922 0.614845 17.7812 0.578125L18.1562 0.503906L18.5312 0.433594C18.8192 0.377775 19.1084 0.356588 19.3984 0.371094L20.1484 0.410156C20.3753 0.421615 20.605 0.414562 20.832 0.394531L21.207 0.363281L21.582 0.328125C21.8741 0.302452 22.1663 0.314183 22.457 0.363281L22.832 0.429688L23.207 0.492188C23.4098 0.526524 23.6146 0.532403 23.8164 0.507812L24.5664 0.414062C24.8301 0.381981 25.0954 0.360521 25.3594 0.351562L26.1094 0.328125C26.4082 0.318114 26.7057 0.349816 27 0.425781L27.75 0.621094C27.9678 0.677336 28.1838 0.708442 28.3984 0.71875L29.1484 0.757812C29.3251 0.766267 29.509 0.736393 29.6992 0.664062L30.0742 0.519531L30.4492 0.378906C30.7689 0.257589 31.0994 0.211117 31.4336 0.25L32.1836 0.335938C32.3955 0.360546 32.6085 0.363886 32.8203 0.339844L33.5703 0.253906C33.8405 0.223313 34.1123 0.207498 34.3828 0.210938L34.7578 0.21875ZM199.379 1.30859C199.153 1.3103 198.926 1.32617 198.699 1.35938L197.949 1.46875C197.702 1.50497 197.454 1.545 197.207 1.58594L197.168 1.58984L197.344 1.625L197.719 1.69922C197.94 1.74118 198.163 1.76275 198.383 1.76562L199.133 1.77344C199.357 1.7763 199.58 1.76192 199.805 1.73047L200.18 1.67969L200.555 1.625C200.822 1.58748 201.091 1.56732 201.359 1.55859L201.734 1.54688L201.738 1.54297C201.667 1.5347 201.594 1.53829 201.523 1.52344L200.773 1.36719C200.558 1.32195 200.342 1.29918 200.129 1.30078L199.379 1.30859ZM85.7109 1.38281C85.8162 1.39977 85.9234 1.41219 86.0273 1.44531L86.7773 1.6875C86.9727 1.7496 87.1646 1.77107 87.3516 1.76172L87.7266 1.74609L88.0938 1.72656C87.9051 1.71391 87.7151 1.69304 87.5273 1.65625L87.1523 1.58203L86.7773 1.51172C86.5453 1.46629 86.3132 1.43364 86.082 1.41406L85.7109 1.38281ZM154.379 1.39453C154.13 1.39744 153.882 1.40289 153.633 1.40625L152.883 1.41406C152.671 1.41692 152.457 1.44503 152.242 1.49609L152.152 1.51562H152.242L152.617 1.50781C152.872 1.50294 153.128 1.50286 153.383 1.50781L154.133 1.52344C154.406 1.52877 154.681 1.5508 154.953 1.59375L155.328 1.65625L155.703 1.71484C155.922 1.74941 156.141 1.7606 156.359 1.75391L157.109 1.73047C157.182 1.72823 157.255 1.72173 157.328 1.71875C157.056 1.71355 156.785 1.6815 156.516 1.62109L156.141 1.53906L155.766 1.45312C155.553 1.4054 155.339 1.38426 155.129 1.38672L154.379 1.39453ZM167.203 1.58203L166.828 1.64062L166.547 1.68359C166.669 1.68768 166.792 1.68549 166.914 1.69531L167.289 1.72656L167.664 1.75391C167.843 1.76829 168.026 1.74753 168.215 1.68359L168.59 1.55859V1.55469L168.238 1.54688L167.863 1.53906C167.644 1.5334 167.423 1.54803 167.203 1.58203ZM129.645 1.41016L128.895 1.44141C128.741 1.44761 128.587 1.44169 128.434 1.44141L128.684 1.47266C128.928 1.50201 129.174 1.52625 129.418 1.54688L130.168 1.60938C130.418 1.6305 130.668 1.65332 130.918 1.67578L131.293 1.71094L131.668 1.74219C131.867 1.76005 132.068 1.74949 132.27 1.70703L132.645 1.625L132.719 1.60938C132.659 1.60115 132.599 1.59652 132.539 1.58594L131.789 1.45312C131.568 1.41376 131.345 1.3944 131.125 1.39453H130.375C130.132 1.39468 129.888 1.40031 129.645 1.41016ZM147.746 1.44141L146.996 1.62891C146.93 1.64526 146.863 1.65092 146.797 1.66016C146.985 1.7276 147.164 1.75425 147.34 1.74219L148.09 1.6875C148.359 1.66885 148.629 1.66684 148.898 1.67969L149.273 1.69922L149.648 1.71484C149.865 1.72521 150.083 1.71665 150.301 1.6875L150.184 1.67188L149.809 1.61719C149.558 1.58299 149.305 1.55069 149.055 1.51562L148.68 1.46094L148.305 1.41016C148.12 1.38441 147.935 1.39461 147.746 1.44141ZM96.6719 1.41016L95.9219 1.48047C95.6748 1.50317 95.4268 1.52822 95.1797 1.55469L95.0273 1.56641L95.3477 1.63281L95.7227 1.71094C95.9021 1.74718 96.0811 1.74428 96.2617 1.70312L97.0117 1.53125C97.3366 1.45683 97.6677 1.45815 97.9922 1.53516L98.7422 1.71484C98.9091 1.75413 99.0732 1.7488 99.2422 1.70312L99.5195 1.625L99.1758 1.57422L98.8008 1.51562C98.5664 1.48 98.3315 1.45508 98.0977 1.44141L97.7227 1.42188L97.3477 1.39844C97.123 1.38535 96.8967 1.38956 96.6719 1.41016ZM138.66 1.3125L137.91 1.36719C137.667 1.38515 137.423 1.40678 137.18 1.43359L136.805 1.47656L136.559 1.50391C136.657 1.51144 136.757 1.51589 136.855 1.51172L137.605 1.48047C137.882 1.46882 138.158 1.47891 138.434 1.51172L138.809 1.55469L139.184 1.60156C139.409 1.62838 139.634 1.63563 139.859 1.62891L140.609 1.60547C140.882 1.59727 141.157 1.61113 141.43 1.64062L142.18 1.71875C142.397 1.74218 142.615 1.746 142.832 1.72656L143.207 1.69141L143.582 1.66016C143.802 1.64034 144.023 1.59842 144.246 1.53906L144.621 1.44141L144.996 1.33984C145.005 1.3374 145.014 1.33432 145.023 1.33203C144.929 1.32455 144.836 1.32934 144.742 1.35156L143.992 1.53125C143.702 1.60046 143.407 1.6321 143.113 1.625L142.738 1.61719L142.363 1.60547C142.109 1.59929 141.852 1.5911 141.598 1.57812L140.848 1.53906C140.581 1.52539 140.313 1.49871 140.047 1.45703L139.297 1.33984C139.084 1.30666 138.871 1.29692 138.66 1.3125ZM164.234 1.43359L163.859 1.51953L163.484 1.60156C163.327 1.63677 163.17 1.65335 163.012 1.65625L163.207 1.69141C163.425 1.72795 163.643 1.74164 163.859 1.73438L164.609 1.71094C164.861 1.7025 165.112 1.69303 165.363 1.6875L165.711 1.67969C165.64 1.66755 165.567 1.66325 165.496 1.64453L165.121 1.54688L164.746 1.44531C164.573 1.39958 164.405 1.39542 164.234 1.43359ZM21.668 1.32422L21.293 1.35938L20.918 1.39062C20.6459 1.41458 20.3738 1.41992 20.1016 1.40625L19.3516 1.36719C19.1426 1.35664 18.9298 1.37308 18.7188 1.41406L18.3438 1.48828L17.9688 1.55859C17.6749 1.61553 17.3804 1.61766 17.0859 1.57031L17.3477 1.625L17.7227 1.69922C17.9091 1.737 18.0952 1.73867 18.2812 1.70312L19.0312 1.5625C19.3154 1.50821 19.6007 1.48095 19.8867 1.48828L20.2617 1.5L20.6367 1.50781C20.9016 1.51469 21.169 1.53586 21.4336 1.56641L22.1836 1.65234C22.3987 1.67708 22.6133 1.67973 22.8281 1.66016L23.5781 1.58984C23.8328 1.56653 24.089 1.55049 24.3438 1.53516L25.0938 1.48828C25.3857 1.47072 25.6788 1.48784 25.9688 1.54297L26.3438 1.61719L26.7188 1.6875C26.9039 1.72266 27.0876 1.72191 27.2734 1.68359L27.6133 1.60938C27.5761 1.6008 27.5371 1.59943 27.5 1.58984L26.75 1.39453C26.5449 1.34158 26.3412 1.32132 26.1406 1.32812L25.3906 1.35156C25.1557 1.35957 24.9188 1.37758 24.6836 1.40625L23.9336 1.5C23.6364 1.53602 23.3391 1.5266 23.043 1.47656L22.293 1.35156C22.0846 1.31628 21.875 1.30595 21.668 1.32422ZM172.379 1.36328C172.149 1.36586 171.918 1.38195 171.688 1.41016L171.562 1.42188L171.906 1.53516L172.281 1.65625C172.472 1.71819 172.658 1.7398 172.84 1.72656L173.59 1.67188C173.827 1.6546 174.064 1.62876 174.301 1.59375L174.336 1.58594L174.121 1.53125L173.746 1.43359C173.538 1.37876 173.332 1.35325 173.129 1.35547L172.379 1.36328ZM185.891 1.26562C185.666 1.27304 185.44 1.29825 185.215 1.33984L184.465 1.48047C184.17 1.53469 183.874 1.53826 183.578 1.5L183.875 1.57812L184.25 1.67188C184.446 1.72189 184.637 1.73965 184.828 1.72266L185.578 1.65234C185.824 1.63019 186.071 1.6062 186.316 1.57812L187.066 1.49219C187.359 1.45874 187.653 1.46181 187.945 1.50391L188.695 1.61328C188.898 1.6426 189.102 1.64241 189.305 1.61328L189.68 1.55859L190.055 1.50781C190.284 1.47495 190.513 1.46426 190.742 1.47266L190.66 1.46094L190.285 1.39062C190.07 1.35104 189.855 1.33407 189.641 1.33984L189.266 1.35156L188.891 1.35938C188.62 1.36683 188.348 1.3574 188.078 1.33203L187.328 1.26172C187.099 1.24022 186.869 1.23467 186.641 1.24219L185.891 1.26562ZM117.68 1.32031L116.93 1.40625C116.665 1.43618 116.401 1.45524 116.137 1.46094L115.387 1.47656C115.137 1.48191 114.886 1.47548 114.637 1.46094L114.902 1.54688L115.277 1.66406C115.461 1.72285 115.638 1.73984 115.812 1.71875L116.188 1.67578L116.562 1.62891C116.792 1.6009 117.023 1.55658 117.254 1.5L117.629 1.41016L118.004 1.31641C118.029 1.31025 118.057 1.30994 118.082 1.30469C117.949 1.30743 117.813 1.30516 117.68 1.32031ZM80.2188 1.35547L80.0625 1.38281L80.3828 1.47266L80.7578 1.57422C80.9742 1.63331 81.1897 1.66866 81.4023 1.67969L82.1523 1.71875C82.2135 1.7219 82.2747 1.71068 82.3359 1.71094C82.0508 1.7127 81.768 1.67798 81.4883 1.59766L81.1133 1.49219L80.7383 1.38281C80.562 1.33213 80.3898 1.32305 80.2188 1.35547ZM33.6797 1.24609L32.9297 1.33203C32.6423 1.36452 32.3538 1.36547 32.0664 1.33203L31.6914 1.28906L31.3164 1.24219C31.152 1.22321 30.9834 1.24483 30.8047 1.3125L30.5234 1.41797L30.8711 1.50781L31.2461 1.60156C31.455 1.65266 31.6619 1.67417 31.8672 1.67188L32.6172 1.66406C32.877 1.66096 33.1386 1.66715 33.3984 1.67969L33.7734 1.69531L34.1484 1.71484C34.3759 1.72583 34.6044 1.72289 34.832 1.70312L35.207 1.66797L35.582 1.63672C35.8252 1.6156 36.0693 1.58972 36.3125 1.55859L36.6562 1.50781C36.6073 1.49818 36.5567 1.49618 36.5078 1.48438L35.7578 1.30469C35.5432 1.2528 35.3287 1.22534 35.1172 1.22266L34.7422 1.21875L34.3672 1.21094C34.1388 1.2081 33.9085 1.22013 33.6797 1.24609ZM105.754 1.48047L105.379 1.57812L105.004 1.67969C104.975 1.68759 104.944 1.68829 104.914 1.69531C105.06 1.7116 105.206 1.72196 105.352 1.71484L106.102 1.67578C106.313 1.66535 106.527 1.63033 106.742 1.57031L106.859 1.53516L106.672 1.50781L106.297 1.44922C106.118 1.42105 105.938 1.43103 105.754 1.48047ZM179.191 1.50391L178.441 1.60547C178.349 1.61766 178.256 1.62153 178.164 1.62891L178.277 1.66797C178.439 1.72001 178.593 1.72317 178.75 1.68359L179.125 1.58984L179.5 1.49219C179.51 1.48965 179.521 1.48678 179.531 1.48438C179.418 1.48147 179.305 1.48894 179.191 1.50391ZM73.3789 1.34766C73.153 1.35013 72.9259 1.37185 72.6992 1.40625L72.5938 1.41797L72.8945 1.51172L73.2695 1.625C73.4684 1.68519 73.6638 1.71095 73.8555 1.70312L74.6055 1.67188C74.8357 1.66245 75.066 1.63771 75.2969 1.60156L75.6055 1.55078C75.5811 1.54636 75.5556 1.54765 75.5312 1.54297L75.1562 1.47266L74.7812 1.39844C74.5635 1.35662 74.3449 1.33754 74.1289 1.33984L73.3789 1.34766ZM47.8789 1.27344C47.6672 1.27522 47.453 1.30102 47.2383 1.35156L46.8633 1.44141L46.5586 1.50781C46.6861 1.52279 46.8139 1.53725 46.9414 1.55469L47.3164 1.60547L47.6914 1.66016C47.8742 1.68516 48.0585 1.6708 48.2461 1.62109L48.6211 1.52344L48.9961 1.42188C49.0915 1.39658 49.1891 1.38531 49.2852 1.37109L49.2305 1.35547C49.0266 1.29481 48.8265 1.26398 48.6289 1.26562L47.8789 1.27344ZM217.273 1.26953C217.086 1.26615 216.899 1.28002 216.711 1.3125L216.336 1.375L215.961 1.44141C215.67 1.49157 215.378 1.50394 215.086 1.48047L214.336 1.41797C214.116 1.40018 213.892 1.40427 213.672 1.42578L213.297 1.46094L212.922 1.5C212.635 1.52782 212.349 1.521 212.062 1.48438L211.312 1.39062C211.113 1.36503 210.912 1.36694 210.711 1.40234L209.961 1.53516C209.938 1.53925 209.914 1.53935 209.891 1.54297C210.061 1.56295 210.232 1.58378 210.402 1.59375L210.777 1.61328L211.152 1.63672C211.391 1.65061 211.632 1.65844 211.871 1.65625L212.621 1.64844C212.867 1.64617 213.113 1.64009 213.359 1.63281L214.109 1.60938C214.357 1.60206 214.604 1.59345 214.852 1.58203L215.227 1.56641L215.602 1.54688C215.823 1.53663 216.046 1.50876 216.27 1.46094L216.645 1.38281L217.02 1.30078C217.104 1.28273 217.19 1.27848 217.273 1.26953ZM57.7891 1.34766L57.4141 1.47656L57.0391 1.60938C56.9852 1.62819 56.9294 1.63827 56.875 1.65234C57.03 1.65502 57.1848 1.66302 57.3398 1.65234L57.7148 1.625L58.0898 1.60156C58.3224 1.58551 58.5559 1.55606 58.7891 1.51562L59.1484 1.44922C59.1111 1.44408 59.0724 1.44823 59.0352 1.44141L58.6602 1.37109L58.2852 1.30469C58.1241 1.27521 57.9608 1.28763 57.7891 1.34766ZM38.707 1.60156C38.9149 1.63596 39.1214 1.64351 39.3281 1.625V1.62109L39.207 1.61328L38.832 1.57812C38.7258 1.56866 38.6179 1.57017 38.5117 1.56641L38.707 1.60156ZM54.6719 1.5L53.9219 1.57031C53.8414 1.57776 53.7601 1.5733 53.6797 1.57422L53.7031 1.57812C53.9223 1.61306 54.1413 1.62721 54.3594 1.62109L54.7344 1.61328L55.1094 1.60156L55.6523 1.60938L55.2773 1.53125C55.0744 1.49055 54.8726 1.4815 54.6719 1.5ZM12.6797 1.26562L11.9297 1.34375C11.6749 1.37117 11.4189 1.39808 11.1641 1.41797L10.4141 1.47266C10.2603 1.48465 10.107 1.50749 9.95312 1.52734L10.207 1.57031C10.4014 1.60203 10.5945 1.59991 10.7891 1.56641L11.1641 1.50391L11.5391 1.4375C11.8388 1.38578 12.1408 1.38154 12.4414 1.42188L13.1914 1.52344C13.3997 1.55137 13.6083 1.5522 13.8164 1.52734L14.0742 1.49219C14.0526 1.48753 14.0294 1.48961 14.0078 1.48438L13.2578 1.30469C13.0629 1.25746 12.8707 1.2452 12.6797 1.26562ZM182.234 1.42188L181.859 1.50781L181.484 1.58594C181.587 1.58625 181.69 1.57973 181.793 1.5625L182.543 1.4375C182.672 1.41596 182.801 1.41359 182.93 1.41406L182.809 1.39844C182.619 1.3725 182.427 1.37905 182.234 1.42188ZM109.375 1.34766C109.199 1.3481 109.024 1.36785 108.848 1.39453L109.223 1.46875C109.446 1.51222 109.669 1.53593 109.891 1.54297L110.641 1.56641C110.884 1.57412 111.128 1.57926 111.371 1.57812L111.746 1.57422H112.121C112.339 1.57319 112.561 1.55046 112.781 1.50781L113.156 1.4375L113.363 1.39453C113.283 1.39222 113.202 1.38764 113.121 1.38672L112.371 1.37891C112.12 1.37608 111.868 1.37154 111.617 1.36719L111.242 1.35938L110.867 1.35547C110.62 1.35119 110.372 1.34711 110.125 1.34766H109.375ZM68.2188 1.40234L68.0938 1.42578L68.7188 1.54297C68.8937 1.57599 69.0676 1.5703 69.2461 1.52344L69.6211 1.42578L69.625 1.42188C69.6133 1.42102 69.6015 1.42272 69.5898 1.42188L68.8398 1.36719C68.634 1.35218 68.4266 1.36316 68.2188 1.40234ZM63.8555 1.43359L64.2109 1.49609C64.4291 1.5336 64.6465 1.55208 64.8633 1.54688L64.8672 1.54297L64.6523 1.50391L64.2773 1.42969C64.1371 1.4018 63.998 1.40557 63.8555 1.43359ZM121.398 1.32031C121.142 1.33147 120.885 1.33869 120.629 1.33984L120.254 1.34375H119.879C119.622 1.34489 119.363 1.33904 119.105 1.32812L119.082 1.32422L119.359 1.39062L119.734 1.47656C119.938 1.52226 120.14 1.53717 120.34 1.52344L121.09 1.46875C121.349 1.45091 121.608 1.44097 121.867 1.4375L122.617 1.42969C122.855 1.42652 123.094 1.42059 123.332 1.41797L122.793 1.32812C122.577 1.29217 122.363 1.27984 122.148 1.28906L121.398 1.32031ZM3.60938 1.35547L3.85547 1.41016L4.23047 1.49219C4.41491 1.53237 4.59797 1.53435 4.78125 1.5L4.82031 1.49219L4.66406 1.46484L4.28906 1.39844C4.07342 1.36073 3.85866 1.34711 3.64453 1.35547H3.60938ZM2.16016 1.42188L1.82031 1.44531L1.83984 1.50391L2.12891 1.43359L2.17969 1.41797C2.17312 1.41841 2.16672 1.42143 2.16016 1.42188ZM203.227 1.37109L202.852 1.44922L202.664 1.48438C202.713 1.47914 202.763 1.48276 202.812 1.47656L203.562 1.38281C203.633 1.37396 203.703 1.37028 203.773 1.36328C203.591 1.33208 203.41 1.33378 203.227 1.37109ZM85.0391 1.34766C84.9419 1.35563 84.8446 1.37413 84.7461 1.39844L84.3867 1.48047L84.668 1.4375L85.043 1.375C85.1251 1.3611 85.2071 1.35156 85.2891 1.34766H85.0391ZM15.6992 1.42188L15.7734 1.42578L16.1484 1.44531C16.2808 1.45189 16.4148 1.46029 16.5469 1.47656L16.2852 1.42969C16.1873 1.41207 16.0896 1.40407 15.9922 1.40234L15.6992 1.42188ZM51.7617 1.37891L51.5117 1.44531L51.7227 1.4375L52.0977 1.41406C52.2461 1.40577 52.3947 1.40577 52.543 1.41406L52.2734 1.35938C52.1039 1.32374 51.9351 1.33048 51.7617 1.37891ZM218.113 1.33203L218.109 1.30078L218.102 1.30469L217.949 1.29297L218.113 1.33203ZM101.281 1.30469L101.238 1.31641L101.582 1.28906L101.586 1.28516C101.483 1.26715 101.385 1.27106 101.281 1.30469Z" fill="black"/>
</svg>
